C:\Users\r0593348\3dpredictsim\Results\Batchsim_tmt_linear\Pog_s1_tmt_aCst_d05_k1000_ig24_act_GRF.mot
nRows=20
nColumns=19

name C:\Users\r0593348\3dpredictsim\Results\Batchsim_tmt_linear\Pog_s1_tmt_aCst_d05_k1000_ig24_act_GRF.mot
datacolumns 19
datarows 20
range 0.6144148041 0.8478924297
endheader
time 	ground_force_vx	ground_force_vy	ground_force_vz	ground_force_px	ground_force_py	ground_force_pz	1_ground_force_vx	1_ground_force_vy	1_ground_force_vz	1_ground_force_px	1_ground_force_py	1_ground_force_pz	ground_torque_x	ground_torque_y	ground_torque_z	1_ground_torque_x	1_ground_torque_y	1_ground_torque_z
        0.6144148041	      105.2523480040	      437.8264056724	        1.7895490408	        0.4093950719	        0.0000000000	        0.0324773854	      -43.6842712111	       33.9884062536	      -10.9833120830	        0.9563282637	        0.0000000000	       -0.0530143674	        0.0000000000	        0.0000000000	        0.0000000000	        0.0000000000	        0.0000000000	        0.0000000000	
        0.6267031002	       75.4571984685	      340.8821566096	        7.0040381771	        0.4167639284	        0.0000000000	        0.0295138842	     -113.6431906456	      116.6524001613	      -42.4630632122	        0.9645714351	        0.0000000000	       -0.0510359872	        0.0000000000	        0.0000000000	        0.0000000000	        0.0000000000	        0.0000000000	        0.0000000000	
        0.6389913963	       44.2660504036	      237.0889558304	       13.5060345512	        0.4288964831	        0.0000000000	        0.0241399271	      -53.5927261041	      293.7304771660	      -17.9977801367	        0.9701711419	        0.0000000000	       -0.0491500797	        0.0000000000	        0.0000000000	        0.0000000000	        0.0000000000	        0.0000000000	        0.0000000000	
        0.6512796924	       30.2434520027	      185.7371929450	       13.1451834511	        0.4359204603	        0.0000000000	        0.0204647808	      -52.4298334583	      495.7137702698	        5.5070561472	        0.9734128177	        0.0000000000	       -0.0489392639	        0.0000000000	        0.0000000000	        0.0000000000	        0.0000000000	        0.0000000000	        0.0000000000	
        0.6635679885	       28.3075271610	      145.5037650844	       12.8685305161	        0.4363597224	        0.0000000000	        0.0205424482	      -98.3095406535	      712.2367713790	       15.9996040226	        0.9824498480	        0.0000000000	       -0.0508686898	        0.0000000000	        0.0000000000	        0.0000000000	        0.0000000000	        0.0000000000	        0.0000000000	
        0.6758562846	       18.7318602762	       94.1575218909	       14.5933373190	        0.4366432001	        0.0000000000	        0.0209321864	     -132.2909257918	      857.0406912702	       20.8202827030	        0.9906561388	        0.0000000000	       -0.0526777058	        0.0000000000	        0.0000000000	        0.0000000000	        0.0000000000	        0.0000000000	        0.0000000000	
        0.6881445806	        1.6530241570	       35.9669169872	        8.5816517539	        0.4359028444	        0.0000000000	        0.0211431610	     -140.3034497084	      889.8239883891	       21.3339075970	        0.9959726620	        0.0000000000	       -0.0537093295	        0.0000000000	        0.0000000000	        0.0000000000	        0.0000000000	        0.0000000000	        0.0000000000	
        0.7004328767	        0.4924117063	       -0.4837459348	       -0.0169134307	        0.0000000000	        0.0000000000	        0.0000000000	     -129.0094122086	      866.0671360523	       21.1537339663	        0.9999459631	        0.0000000000	       -0.0542791426	        0.0000000000	        0.0000000000	        0.0000000000	        0.0000000000	        0.0000000000	        0.0000000000	
        0.7127211728	        0.3527588591	       -0.2723033644	        0.0203757876	        0.0000000000	        0.0000000000	        0.0000000000	     -113.7378306863	      819.7038703132	       20.7294909847	        1.0039010798	        0.0000000000	       -0.0545131205	        0.0000000000	        0.0000000000	        0.0000000000	        0.0000000000	        0.0000000000	        0.0000000000	
        0.7250094689	       -3.3849832618	        2.2525305974	       -0.2616685077	        0.0000000000	        0.0000000000	        0.0000000000	     -100.5372981510	      774.2332347598	       19.4526384084	        1.0081635537	        0.0000000000	       -0.0544734747	        0.0000000000	        0.0000000000	        0.0000000000	        0.0000000000	        0.0000000000	        0.0000000000	
        0.7372977650	       -3.0825631265	        1.8363960876	       -0.2505476913	        0.0000000000	        0.0000000000	        0.0000000000	      -90.2072874934	      741.4450522095	       18.9542253337	        1.0133273036	        0.0000000000	       -0.0541770647	        0.0000000000	        0.0000000000	        0.0000000000	        0.0000000000	        0.0000000000	        0.0000000000	
        0.7495860611	       -2.4177259688	        1.3262677552	       -0.2069041111	        0.0000000000	        0.0000000000	        0.0000000000	      -81.0613518210	      716.4184130699	       19.1117539930	        1.0191564150	        0.0000000000	       -0.0536407836	        0.0000000000	        0.0000000000	        0.0000000000	        0.0000000000	        0.0000000000	        0.0000000000	
        0.7618743571	       -1.8745241694	        0.9740376565	       -0.1536294368	        0.0000000000	        0.0000000000	        0.0000000000	      -71.4380285215	      691.1093625644	       19.4559801065	        1.0247810629	        0.0000000000	       -0.0531463469	        0.0000000000	        0.0000000000	        0.0000000000	        0.0000000000	        0.0000000000	        0.0000000000	
        0.7741626532	       -1.3213896501	        0.6572922553	       -0.1065937557	        0.0000000000	        0.0000000000	        0.0000000000	      -62.2518467123	      666.2684387721	       20.1565663414	        1.0300933680	        0.0000000000	       -0.0527515392	        0.0000000000	        0.0000000000	        0.0000000000	        0.0000000000	        0.0000000000	        0.0000000000	
        0.7864509493	       -0.9563429784	        0.4593691560	       -0.0759542972	        0.0000000000	        0.0000000000	        0.0000000000	      -53.8623672027	      644.8522639916	       20.3810387844	        1.0352378315	        0.0000000000	       -0.0524364848	        0.0000000000	        0.0000000000	        0.0000000000	        0.0000000000	        0.0000000000	        0.0000000000	
        0.7987392454	       -0.7504783901	        0.3503096122	       -0.0588125558	        0.0000000000	        0.0000000000	        0.0000000000	      -46.2663647150	      627.4725417149	       20.7214833881	        1.0405667973	        0.0000000000	       -0.0521267251	        0.0000000000	        0.0000000000	        0.0000000000	        0.0000000000	        0.0000000000	        0.0000000000	
        0.8110275415	       -0.6428014492	        0.2928382284	       -0.0495977946	        0.0000000000	        0.0000000000	        0.0000000000	      -39.7013054468	      614.4972930373	       21.0172659669	        1.0465452363	        0.0000000000	       -0.0517340185	        0.0000000000	        0.0000000000	        0.0000000000	        0.0000000000	        0.0000000000	        0.0000000000	
        0.8233158375	       -0.5960542130	        0.2657809832	       -0.0452672317	        0.0000000000	        0.0000000000	        0.0000000000	      -34.7645497992	      605.4801616291	       21.0016615802	        1.0532198185	        0.0000000000	       -0.0512149246	        0.0000000000	        0.0000000000	        0.0000000000	        0.0000000000	        0.0000000000	        0.0000000000	
        0.8356041336	       -0.5960803718	        0.2605412351	       -0.0443808341	        0.0000000000	        0.0000000000	        0.0000000000	      -30.8954197686	      599.5948765446	       20.4796095476	        1.0602242354	        0.0000000000	       -0.0505989056	        0.0000000000	        0.0000000000	        0.0000000000	        0.0000000000	        0.0000000000	        0.0000000000	
        0.8478924297	       -0.6415590374	        0.2750436530	       -0.0462957525	        0.0000000000	        0.0000000000	        0.0000000000	      -27.5879437316	      596.0172101317	       19.4280474967	        1.0673808150	        0.0000000000	       -0.0499086251	        0.0000000000	        0.0000000000	        0.0000000000	        0.0000000000	        0.0000000000	        0.0000000000	
